<svg width="360" height="760" viewBox="0 0 360 760" fill="none" xmlns="http://www.w3.org/2000/svg">
  <rect width="360" height="760" rx="34" fill="#F4FBF7"/>
  <rect x="24" y="42" width="312" height="150" rx="28" fill="#075D3B"/>
  <text x="44" y="82" font-family="Arial" font-size="16" fill="#C7F4DD">Freshly</text>
  <text x="44" y="118" font-family="Arial" font-size="28" font-weight="700" fill="white">Groceries at your door</text>
  <rect x="44" y="142" width="132" height="34" rx="17" fill="#DDF9EA"/>
  <text x="66" y="164" font-family="Arial" font-size="13" font-weight="700" fill="#075D3B">Shop Now</text>
  <rect x="24" y="216" width="312" height="52" rx="18" fill="white" stroke="#DDE7E2"/>
  <text x="48" y="249" font-family="Arial" font-size="14" fill="#7A847E">Search fresh products</text>
  <text x="24" y="306" font-family="Arial" font-size="20" font-weight="700" fill="#101612">Categories</text>
  <g fill="white" stroke="#E3EEE8">
    <rect x="24" y="326" width="92" height="92" rx="22"/>
    <rect x="134" y="326" width="92" height="92" rx="22"/>
    <rect x="244" y="326" width="92" height="92" rx="22"/>
  </g>
  <g fill="#075D3B" font-family="Arial" font-size="12" font-weight="700">
    <text x="45" y="382">Vegetables</text>
    <text x="159" y="382">Fruits</text>
    <text x="266" y="382">Bakery</text>
  </g>
  <text x="24" y="462" font-family="Arial" font-size="20" font-weight="700" fill="#101612">Popular picks</text>
  <g>
    <rect x="24" y="484" width="146" height="190" rx="24" fill="white" stroke="#E3EEE8"/>
    <rect x="190" y="484" width="146" height="190" rx="24" fill="white" stroke="#E3EEE8"/>
    <circle cx="97" cy="548" r="38" fill="#DDF9EA"/>
    <circle cx="263" cy="548" r="38" fill="#DDF9EA"/>
    <text x="44" y="628" font-family="Arial" font-size="14" font-weight="700" fill="#101612">Organic Avocado</text>
    <text x="210" y="628" font-family="Arial" font-size="14" font-weight="700" fill="#101612">Fresh Apples</text>
    <text x="44" y="652" font-family="Arial" font-size="16" font-weight="700" fill="#075D3B">$3.50</text>
    <text x="210" y="652" font-family="Arial" font-size="16" font-weight="700" fill="#075D3B">$4.20</text>
  </g>
</svg>
